{
	"asset":{
		"generator":"Khronos glTF Blender I/O v3.5.30",
		"version":"2.0"
	},
	"scene":0,
	"scenes":[
		{
			"name":"Scene",
			"nodes":[
				0,
				1,
				2,
				3,
				4,
				5,
				6,
				7,
				8,
				9,
				10,
				11,
				12,
				13,
				14
			]
		}
	],
	"nodes":[
		{
			"mesh":0,
			"name":"Cube",
			"translation":[
				-4.405910015106201,
				1.0009992122650146,
				6.555644989013672
			]
		},
		{
			"mesh":1,
			"name":"tree",
			"scale":[
				0.6441807746887207,
				0.6441807746887207,
				0.6441807746887207
			],
			"translation":[
				5.106184482574463,
				1.262354850769043,
				-2.793491840362549
			]
		},
		{
			"mesh":2,
			"name":"building.001",
			"translation":[
				5.9655351638793945,
				1.0009992122650146,
				-0.7445342540740967
			]
		},
		{
			"mesh":3,
			"name":"on_the_roof.005",
			"scale":[
				0.3116135895252228,
				0.3116135895252228,
				0.3116135895252228
			],
			"translation":[
				5.855759620666504,
				3.7926902770996094,
				-0.36219432950019836
			]
		},
		{
			"mesh":4,
			"name":"ground",
			"scale":[
				3.1636769771575928,
				1.7153493165969849,
				4.288931846618652
			],
			"translation":[
				6.042730808258057,
				0.011278760619461536,
				-0.045261919498443604
			]
		},
		{
			"mesh":5,
			"name":"building",
			"translation":[
				5.9655351638793945,
				1.0009992122650146,
				2.5301706790924072
			]
		},
		{
			"mesh":6,
			"name":"on_the_roof.002",
			"scale":[
				0.10654549300670624,
				0.08599527180194855,
				0.16637875139713287
			],
			"translation":[
				6.69347620010376,
				3.2627289295196533,
				-1.4560189247131348
			]
		},
		{
			"mesh":7,
			"name":"on_the_roof",
			"scale":[
				0.10654549300670624,
				0.08599527180194855,
				0.16637875139713287
			],
			"translation":[
				6.32275915145874,
				3.2627289295196533,
				-1.4560189247131348
			]
		},
		{
			"mesh":8,
			"name":"on_the_roof.006",
			"scale":[
				0.10654549300670624,
				0.08599527180194855,
				0.16637875139713287
			],
			"translation":[
				5.208700656890869,
				2.7212870121002197,
				3.656271457672119
			]
		},
		{
			"mesh":9,
			"name":"on_the_roof.007",
			"scale":[
				0.10654549300670624,
				0.08599527180194855,
				0.16637875139713287
			],
			"translation":[
				6.7683820724487305,
				2.7212870121002197,
				2.8145384788513184
			]
		},
		{
			"mesh":10,
			"name":"on_the_roof.008",
			"scale":[
				0.10654549300670624,
				0.08599527180194855,
				0.16637875139713287
			],
			"translation":[
				6.7683820724487305,
				2.7212870121002197,
				3.2106480598449707
			]
		},
		{
			"mesh":11,
			"name":"Cube.009",
			"scale":[
				0.08026870340108871,
				0.031186876818537712,
				0.3127122223377228
			],
			"translation":[
				3.674506902694702,
				0.14195357263088226,
				0
			]
		},
		{
			"mesh":12,
			"name":"Cube.010",
			"scale":[
				0.014229641295969486,
				0.014229641295969486,
				0.014229641295969486
			],
			"translation":[
				3.41037917137146,
				0.01951814815402031,
				0.6694929003715515
			]
		},
		{
			"mesh":13,
			"name":"tree.001",
			"rotation":[
				0,
				0.9887087941169739,
				0,
				0.14984987676143646
			],
			"scale":[
				0.7618674635887146,
				0.7618674039840698,
				0.7618674635887146
			],
			"translation":[
				6.281707763671875,
				1.4638731479644775,
				-3.599565029144287
			]
		},
		{
			"mesh":14,
			"name":"Cube.001",
			"rotation":[
				1,
				0,
				0,
				0
			],
			"scale":[
				-0.009695892222225666,
				-0.11828434467315674,
				-0.17441435158252716
			],
			"translation":[
				4.396885395050049,
				0.13699817657470703,
				0.1720118522644043
			]
		}
	],
	"materials":[
		{
			"doubleSided":true,
			"name":"building_1",
			"pbrMetallicRoughness":{
				"baseColorFactor":[
					0.8000000715255737,
					0.42674389481544495,
					0.10951212793588638,
					1
				],
				"metallicFactor":0,
				"roughnessFactor":0.5
			}
		},
		{
			"doubleSided":true,
			"name":"windows_1",
			"pbrMetallicRoughness":{
				"baseColorFactor":[
					0.6087642908096313,
					0.8000000715255737,
					0.7770940661430359,
					1
				],
				"metallicFactor":0,
				"roughnessFactor":0
			}
		},
		{
			"doubleSided":true,
			"name":"roof_1",
			"pbrMetallicRoughness":{
				"baseColorFactor":[
					0.1873142272233963,
					0.02985134907066822,
					0.039428915828466415,
					1
				],
				"metallicFactor":0,
				"roughnessFactor":0.807692289352417
			}
		}
	],
	"meshes":[
		{
			"name":"Cube",
			"primitives":[
				{
					"attributes":{
						"POSITION":0,
						"TEXCOORD_0":1,
						"NORMAL":2
					},
					"indices":3,
					"material":0
				}
			]
		},
		{
			"name":"Icosphere",
			"primitives":[
				{
					"attributes":{
						"POSITION":4,
						"TEXCOORD_0":5,
						"NORMAL":6
					},
					"indices":7
				}
			]
		},
		{
			"name":"Cube.004",
			"primitives":[
				{
					"attributes":{
						"POSITION":8,
						"TEXCOORD_0":9,
						"NORMAL":10
					},
					"indices":11,
					"material":0
				},
				{
					"attributes":{
						"POSITION":12,
						"TEXCOORD_0":13,
						"NORMAL":14
					},
					"indices":15,
					"material":1
				},
				{
					"attributes":{
						"POSITION":16,
						"TEXCOORD_0":17,
						"NORMAL":18
					},
					"indices":19,
					"material":2
				}
			]
		},
		{
			"name":"Cube.005",
			"primitives":[
				{
					"attributes":{
						"POSITION":20,
						"TEXCOORD_0":21,
						"NORMAL":22
					},
					"indices":23
				}
			]
		},
		{
			"name":"Plane",
			"primitives":[
				{
					"attributes":{
						"POSITION":24,
						"TEXCOORD_0":25,
						"NORMAL":26
					},
					"indices":27
				}
			]
		},
		{
			"name":"Cube.002",
			"primitives":[
				{
					"attributes":{
						"POSITION":28,
						"TEXCOORD_0":29,
						"NORMAL":30
					},
					"indices":31,
					"material":0
				}
			]
		},
		{
			"name":"Cube.003",
			"primitives":[
				{
					"attributes":{
						"POSITION":32,
						"TEXCOORD_0":33,
						"NORMAL":34
					},
					"indices":35
				}
			]
		},
		{
			"name":"Cube.006",
			"primitives":[
				{
					"attributes":{
						"POSITION":36,
						"TEXCOORD_0":37,
						"NORMAL":38
					},
					"indices":35
				}
			]
		},
		{
			"name":"Cube.007",
			"primitives":[
				{
					"attributes":{
						"POSITION":39,
						"TEXCOORD_0":40,
						"NORMAL":41
					},
					"indices":35
				}
			]
		},
		{
			"name":"Cube.008",
			"primitives":[
				{
					"attributes":{
						"POSITION":42,
						"TEXCOORD_0":43,
						"NORMAL":44
					},
					"indices":35
				}
			]
		},
		{
			"name":"Cube.009",
			"primitives":[
				{
					"attributes":{
						"POSITION":45,
						"TEXCOORD_0":46,
						"NORMAL":47
					},
					"indices":35
				}
			]
		},
		{
			"name":"Cube.035",
			"primitives":[
				{
					"attributes":{
						"POSITION":48,
						"TEXCOORD_0":49,
						"NORMAL":50
					},
					"indices":51
				}
			]
		},
		{
			"name":"Cube.036",
			"primitives":[
				{
					"attributes":{
						"POSITION":52,
						"TEXCOORD_0":53,
						"NORMAL":54
					},
					"indices":55
				}
			]
		},
		{
			"name":"Icosphere.001",
			"primitives":[
				{
					"attributes":{
						"POSITION":56,
						"TEXCOORD_0":57,
						"NORMAL":58
					},
					"indices":7
				}
			]
		},
		{
			"name":"Cube.037",
			"primitives":[
				{
					"attributes":{
						"POSITION":59,
						"TEXCOORD_0":60,
						"NORMAL":61
					},
					"indices":35
				}
			]
		}
	],
	"accessors":[
		{
			"bufferView":0,
			"componentType":5126,
			"count":592,
			"max":[
				1.0932410955429077,
				1.0876784324645996,
				1.0932410955429077
			],
			"min":[
				-1.0932410955429077,
				-1,
				-1.0932410955429077
			],
			"type":"VEC3"
		},
		{
			"bufferView":1,
			"componentType":5126,
			"count":592,
			"type":"VEC2"
		},
		{
			"bufferView":2,
			"componentType":5126,
			"count":592,
			"type":"VEC3"
		},
		{
			"bufferView":3,
			"componentType":5123,
			"count":1428,
			"type":"SCALAR"
		},
		{
			"bufferView":4,
			"componentType":5126,
			"count":72,
			"max":[
				0.852861762046814,
				0.7984510660171509,
				0.9824687242507935
			],
			"min":[
				-0.852861762046814,
				-1.890149474143982,
				-0.9824689626693726
			],
			"type":"VEC3"
		},
		{
			"bufferView":5,
			"componentType":5126,
			"count":72,
			"type":"VEC2"
		},
		{
			"bufferView":6,
			"componentType":5126,
			"count":72,
			"type":"VEC3"
		},
		{
			"bufferView":7,
			"componentType":5123,
			"count":78,
			"type":"SCALAR"
		},
		{
			"bufferView":8,
			"componentType":5126,
			"count":642,
			"max":[
				1.0932410955429077,
				2.248013496398926,
				1.0932410955429077
			],
			"min":[
				-1.0932410955429077,
				-1,
				-1.0932410955429077
			],
			"type":"VEC3"
		},
		{
			"bufferView":9,
			"componentType":5126,
			"count":642,
			"type":"VEC2"
		},
		{
			"bufferView":10,
			"componentType":5126,
			"count":642,
			"type":"VEC3"
		},
		{
			"bufferView":11,
			"componentType":5123,
			"count":1656,
			"type":"SCALAR"
		},
		{
			"bufferView":12,
			"componentType":5126,
			"count":58,
			"max":[
				0.9059695601463318,
				1.705582857131958,
				0.7142857313156128
			],
			"min":[
				-0.9171142578125,
				-0.4285714328289032,
				-0.7142857313156128
			],
			"type":"VEC3"
		},
		{
			"bufferView":13,
			"componentType":5126,
			"count":58,
			"type":"VEC2"
		},
		{
			"bufferView":14,
			"componentType":5126,
			"count":58,
			"type":"VEC3"
		},
		{
			"bufferView":15,
			"componentType":5123,
			"count":90,
			"type":"SCALAR"
		},
		{
			"bufferView":16,
			"componentType":5126,
			"count":56,
			"max":[
				1,
				2.2346932888031006,
				1
			],
			"min":[
				-1,
				2.160335063934326,
				-1
			],
			"type":"VEC3"
		},
		{
			"bufferView":17,
			"componentType":5126,
			"count":56,
			"type":"VEC2"
		},
		{
			"bufferView":18,
			"componentType":5126,
			"count":56,
			"type":"VEC3"
		},
		{
			"bufferView":19,
			"componentType":5123,
			"count":138,
			"type":"SCALAR"
		},
		{
			"bufferView":20,
			"componentType":5126,
			"count":164,
			"max":[
				1,
				1.6449072360992432,
				1
			],
			"min":[
				-1,
				-1.853860855102539,
				-1
			],
			"type":"VEC3"
		},
		{
			"bufferView":21,
			"componentType":5126,
			"count":164,
			"type":"VEC2"
		},
		{
			"bufferView":22,
			"componentType":5126,
			"count":164,
			"type":"VEC3"
		},
		{
			"bufferView":23,
			"componentType":5123,
			"count":306,
			"type":"SCALAR"
		},
		{
			"bufferView":24,
			"componentType":5126,
			"count":4,
			"max":[
				1,
				0,
				1.5464026927947998
			],
			"min":[
				-1,
				0,
				-1
			],
			"type":"VEC3"
		},
		{
			"bufferView":25,
			"componentType":5126,
			"count":4,
			"type":"VEC2"
		},
		{
			"bufferView":26,
			"componentType":5126,
			"count":4,
			"type":"VEC3"
		},
		{
			"bufferView":27,
			"componentType":5123,
			"count":6,
			"type":"SCALAR"
		},
		{
			"bufferView":28,
			"componentType":5126,
			"count":934,
			"max":[
				1.0932410955429077,
				1.6799204349517822,
				1.5015579462051392
			],
			"min":[
				-1.0932410955429077,
				-1,
				-1.3415484428405762
			],
			"type":"VEC3"
		},
		{
			"bufferView":29,
			"componentType":5126,
			"count":934,
			"type":"VEC2"
		},
		{
			"bufferView":30,
			"componentType":5126,
			"count":934,
			"type":"VEC3"
		},
		{
			"bufferView":31,
			"componentType":5123,
			"count":2484,
			"type":"SCALAR"
		},
		{
			"bufferView":32,
			"componentType":5126,
			"count":24,
			"max":[
				1,
				1,
				1
			],
			"min":[
				-1,
				-1,
				-1
			],
			"type":"VEC3"
		},
		{
			"bufferView":33,
			"componentType":5126,
			"count":24,
			"type":"VEC2"
		},
		{
			"bufferView":34,
			"componentType":5126,
			"count":24,
			"type":"VEC3"
		},
		{
			"bufferView":35,
			"componentType":5123,
			"count":36,
			"type":"SCALAR"
		},
		{
			"bufferView":36,
			"componentType":5126,
			"count":24,
			"max":[
				1,
				1,
				1
			],
			"min":[
				-1,
				-1,
				-1
			],
			"type":"VEC3"
		},
		{
			"bufferView":37,
			"componentType":5126,
			"count":24,
			"type":"VEC2"
		},
		{
			"bufferView":38,
			"componentType":5126,
			"count":24,
			"type":"VEC3"
		},
		{
			"bufferView":39,
			"componentType":5126,
			"count":24,
			"max":[
				1,
				1,
				1
			],
			"min":[
				-1,
				-1,
				-1
			],
			"type":"VEC3"
		},
		{
			"bufferView":40,
			"componentType":5126,
			"count":24,
			"type":"VEC2"
		},
		{
			"bufferView":41,
			"componentType":5126,
			"count":24,
			"type":"VEC3"
		},
		{
			"bufferView":42,
			"componentType":5126,
			"count":24,
			"max":[
				1,
				1,
				1
			],
			"min":[
				-1,
				-1,
				-1
			],
			"type":"VEC3"
		},
		{
			"bufferView":43,
			"componentType":5126,
			"count":24,
			"type":"VEC2"
		},
		{
			"bufferView":44,
			"componentType":5126,
			"count":24,
			"type":"VEC3"
		},
		{
			"bufferView":45,
			"componentType":5126,
			"count":24,
			"max":[
				1,
				1,
				1
			],
			"min":[
				-1,
				-1,
				-1
			],
			"type":"VEC3"
		},
		{
			"bufferView":46,
			"componentType":5126,
			"count":24,
			"type":"VEC2"
		},
		{
			"bufferView":47,
			"componentType":5126,
			"count":24,
			"type":"VEC3"
		},
		{
			"bufferView":48,
			"componentType":5126,
			"count":88,
			"max":[
				1,
				1,
				1
			],
			"min":[
				-1,
				-4.100050926208496,
				-1
			],
			"type":"VEC3"
		},
		{
			"bufferView":49,
			"componentType":5126,
			"count":88,
			"type":"VEC2"
		},
		{
			"bufferView":50,
			"componentType":5126,
			"count":88,
			"type":"VEC3"
		},
		{
			"bufferView":51,
			"componentType":5123,
			"count":180,
			"type":"SCALAR"
		},
		{
			"bufferView":52,
			"componentType":5126,
			"count":78,
			"max":[
				4.937118053436279,
				36.192054748535156,
				2.953500747680664
			],
			"min":[
				-4.937098026275635,
				-1,
				-2.9535155296325684
			],
			"type":"VEC3"
		},
		{
			"bufferView":53,
			"componentType":5126,
			"count":78,
			"type":"VEC2"
		},
		{
			"bufferView":54,
			"componentType":5126,
			"count":78,
			"type":"VEC3"
		},
		{
			"bufferView":55,
			"componentType":5123,
			"count":156,
			"type":"SCALAR"
		},
		{
			"bufferView":56,
			"componentType":5126,
			"count":72,
			"max":[
				0.852861762046814,
				0.7984510660171509,
				0.9824687242507935
			],
			"min":[
				-0.852861762046814,
				-1.890149474143982,
				-0.9824689626693726
			],
			"type":"VEC3"
		},
		{
			"bufferView":57,
			"componentType":5126,
			"count":72,
			"type":"VEC2"
		},
		{
			"bufferView":58,
			"componentType":5126,
			"count":72,
			"type":"VEC3"
		},
		{
			"bufferView":59,
			"componentType":5126,
			"count":24,
			"max":[
				1.5892596244812012,
				1,
				1
			],
			"min":[
				-1.5892956256866455,
				-1,
				-1
			],
			"type":"VEC3"
		},
		{
			"bufferView":60,
			"componentType":5126,
			"count":24,
			"type":"VEC2"
		},
		{
			"bufferView":61,
			"componentType":5126,
			"count":24,
			"type":"VEC3"
		}
	],
	"bufferViews":[
		{
			"buffer":0,
			"byteLength":7104,
			"byteOffset":0,
			"target":34962
		},
		{
			"buffer":0,
			"byteLength":4736,
			"byteOffset":7104,
			"target":34962
		},
		{
			"buffer":0,
			"byteLength":7104,
			"byteOffset":11840,
			"target":34962
		},
		{
			"buffer":0,
			"byteLength":2856,
			"byteOffset":18944,
			"target":34963
		},
		{
			"buffer":0,
			"byteLength":864,
			"byteOffset":21800,
			"target":34962
		},
		{
			"buffer":0,
			"byteLength":576,
			"byteOffset":22664,
			"target":34962
		},
		{
			"buffer":0,
			"byteLength":864,
			"byteOffset":23240,
			"target":34962
		},
		{
			"buffer":0,
			"byteLength":156,
			"byteOffset":24104,
			"target":34963
		},
		{
			"buffer":0,
			"byteLength":7704,
			"byteOffset":24260,
			"target":34962
		},
		{
			"buffer":0,
			"byteLength":5136,
			"byteOffset":31964,
			"target":34962
		},
		{
			"buffer":0,
			"byteLength":7704,
			"byteOffset":37100,
			"target":34962
		},
		{
			"buffer":0,
			"byteLength":3312,
			"byteOffset":44804,
			"target":34963
		},
		{
			"buffer":0,
			"byteLength":696,
			"byteOffset":48116,
			"target":34962
		},
		{
			"buffer":0,
			"byteLength":464,
			"byteOffset":48812,
			"target":34962
		},
		{
			"buffer":0,
			"byteLength":696,
			"byteOffset":49276,
			"target":34962
		},
		{
			"buffer":0,
			"byteLength":180,
			"byteOffset":49972,
			"target":34963
		},
		{
			"buffer":0,
			"byteLength":672,
			"byteOffset":50152,
			"target":34962
		},
		{
			"buffer":0,
			"byteLength":448,
			"byteOffset":50824,
			"target":34962
		},
		{
			"buffer":0,
			"byteLength":672,
			"byteOffset":51272,
			"target":34962
		},
		{
			"buffer":0,
			"byteLength":276,
			"byteOffset":51944,
			"target":34963
		},
		{
			"buffer":0,
			"byteLength":1968,
			"byteOffset":52220,
			"target":34962
		},
		{
			"buffer":0,
			"byteLength":1312,
			"byteOffset":54188,
			"target":34962
		},
		{
			"buffer":0,
			"byteLength":1968,
			"byteOffset":55500,
			"target":34962
		},
		{
			"buffer":0,
			"byteLength":612,
			"byteOffset":57468,
			"target":34963
		},
		{
			"buffer":0,
			"byteLength":48,
			"byteOffset":58080,
			"target":34962
		},
		{
			"buffer":0,
			"byteLength":32,
			"byteOffset":58128,
			"target":34962
		},
		{
			"buffer":0,
			"byteLength":48,
			"byteOffset":58160,
			"target":34962
		},
		{
			"buffer":0,
			"byteLength":12,
			"byteOffset":58208,
			"target":34963
		},
		{
			"buffer":0,
			"byteLength":11208,
			"byteOffset":58220,
			"target":34962
		},
		{
			"buffer":0,
			"byteLength":7472,
			"byteOffset":69428,
			"target":34962
		},
		{
			"buffer":0,
			"byteLength":11208,
			"byteOffset":76900,
			"target":34962
		},
		{
			"buffer":0,
			"byteLength":4968,
			"byteOffset":88108,
			"target":34963
		},
		{
			"buffer":0,
			"byteLength":288,
			"byteOffset":93076,
			"target":34962
		},
		{
			"buffer":0,
			"byteLength":192,
			"byteOffset":93364,
			"target":34962
		},
		{
			"buffer":0,
			"byteLength":288,
			"byteOffset":93556,
			"target":34962
		},
		{
			"buffer":0,
			"byteLength":72,
			"byteOffset":93844,
			"target":34963
		},
		{
			"buffer":0,
			"byteLength":288,
			"byteOffset":93916,
			"target":34962
		},
		{
			"buffer":0,
			"byteLength":192,
			"byteOffset":94204,
			"target":34962
		},
		{
			"buffer":0,
			"byteLength":288,
			"byteOffset":94396,
			"target":34962
		},
		{
			"buffer":0,
			"byteLength":288,
			"byteOffset":94684,
			"target":34962
		},
		{
			"buffer":0,
			"byteLength":192,
			"byteOffset":94972,
			"target":34962
		},
		{
			"buffer":0,
			"byteLength":288,
			"byteOffset":95164,
			"target":34962
		},
		{
			"buffer":0,
			"byteLength":288,
			"byteOffset":95452,
			"target":34962
		},
		{
			"buffer":0,
			"byteLength":192,
			"byteOffset":95740,
			"target":34962
		},
		{
			"buffer":0,
			"byteLength":288,
			"byteOffset":95932,
			"target":34962
		},
		{
			"buffer":0,
			"byteLength":288,
			"byteOffset":96220,
			"target":34962
		},
		{
			"buffer":0,
			"byteLength":192,
			"byteOffset":96508,
			"target":34962
		},
		{
			"buffer":0,
			"byteLength":288,
			"byteOffset":96700,
			"target":34962
		},
		{
			"buffer":0,
			"byteLength":1056,
			"byteOffset":96988,
			"target":34962
		},
		{
			"buffer":0,
			"byteLength":704,
			"byteOffset":98044,
			"target":34962
		},
		{
			"buffer":0,
			"byteLength":1056,
			"byteOffset":98748,
			"target":34962
		},
		{
			"buffer":0,
			"byteLength":360,
			"byteOffset":99804,
			"target":34963
		},
		{
			"buffer":0,
			"byteLength":936,
			"byteOffset":100164,
			"target":34962
		},
		{
			"buffer":0,
			"byteLength":624,
			"byteOffset":101100,
			"target":34962
		},
		{
			"buffer":0,
			"byteLength":936,
			"byteOffset":101724,
			"target":34962
		},
		{
			"buffer":0,
			"byteLength":312,
			"byteOffset":102660,
			"target":34963
		},
		{
			"buffer":0,
			"byteLength":864,
			"byteOffset":102972,
			"target":34962
		},
		{
			"buffer":0,
			"byteLength":576,
			"byteOffset":103836,
			"target":34962
		},
		{
			"buffer":0,
			"byteLength":864,
			"byteOffset":104412,
			"target":34962
		},
		{
			"buffer":0,
			"byteLength":288,
			"byteOffset":105276,
			"target":34962
		},
		{
			"buffer":0,
			"byteLength":192,
			"byteOffset":105564,
			"target":34962
		},
		{
			"buffer":0,
			"byteLength":288,
			"byteOffset":105756,
			"target":34962
		}
	],
	"buffers":[
		{
			"byteLength":106044,
			"uri":"city_test.bin"
		}
	]
}
